<svg width="190" height="40" viewBox="0 0 190 40" fill="none" xmlns="http://www.w3.org/2000/svg">
<path d="M55.406 27.7411C53.8332 27.7411 52.5225 27.4938 51.474 26.9992C50.4254 26.4771 49.4735 25.6664 48.6181 24.5672V36.1501L44.9344 40V7.25474H48.6181V10.1402C49.4735 9.09591 50.4944 8.25777 51.6809 7.62572C52.8674 6.99368 54.1091 6.67766 55.406 6.67766C56.8132 6.67766 58.1515 6.95246 59.4207 7.50206C60.7176 8.02419 61.8351 8.77989 62.7733 9.76917C63.7391 10.7585 64.4841 11.8989 65.0083 13.1904C65.5602 14.4545 65.8361 15.8011 65.8361 17.23C65.8361 18.659 65.5602 20.0055 65.0083 21.2696C64.4841 22.5337 63.7391 23.6604 62.7733 24.6496C61.8351 25.6114 60.7176 26.3671 59.4207 26.9167C58.1515 27.4663 56.8132 27.7411 55.406 27.7411ZM55.406 10.4287C54.4954 10.4287 53.6262 10.6073 52.7984 10.9646C51.9706 11.2943 51.2532 11.7752 50.6462 12.4073C50.0391 13.0393 49.5562 13.7813 49.1975 14.6331C48.8388 15.4575 48.6595 16.3232 48.6595 17.23C48.6595 18.1369 48.8388 19.0025 49.1975 19.8269C49.5562 20.6513 50.0391 21.3795 50.6462 22.0115C51.2532 22.6436 51.9706 23.1382 52.7984 23.4955C53.6262 23.8527 54.4954 24.0313 55.406 24.0313C56.3165 24.0313 57.1857 23.8527 58.0135 23.4955C58.8413 23.1382 59.5587 22.6436 60.1658 22.0115C60.7728 21.3795 61.2419 20.6513 61.573 19.8269C61.9317 19.0025 62.1111 18.1369 62.1111 17.23C62.1111 16.3232 61.9317 15.4575 61.573 14.6331C61.2419 13.7813 60.7728 13.0393 60.1658 12.4073C59.5587 11.7752 58.8413 11.2943 58.0135 10.9646C57.1857 10.6073 56.3165 10.4287 55.406 10.4287Z" fill="#222222"/>
<path d="M71.4538 18.6315C71.4538 19.291 71.6883 19.978 72.1574 20.6925C72.6541 21.407 73.2197 22.0115 73.8544 22.5062C75.0133 23.413 76.3653 23.8665 77.9106 23.8665C80.3663 23.8665 82.3668 22.6848 83.912 20.3215L87.0576 22.1764C85.9815 23.9077 84.6571 25.2405 83.0843 26.1748C81.5115 27.1091 79.7869 27.5763 77.9106 27.5763C76.5033 27.5763 75.1651 27.3152 73.8958 26.7931C72.6265 26.2435 71.509 25.4878 70.5432 24.526C69.5775 23.5642 68.8187 22.4512 68.2668 21.1871C67.7425 19.9231 67.4804 18.5903 67.4804 17.1888C67.4804 15.7873 67.7425 14.4545 68.2668 13.1904C68.8187 11.8989 69.5775 10.7722 70.5432 9.81039C71.4814 8.84859 72.5851 8.10663 73.8544 7.5845C75.1513 7.06238 76.5033 6.80132 77.9106 6.80132C79.3178 6.80132 80.6561 7.06238 81.9254 7.5845C83.2222 8.10663 84.3397 8.84859 85.2779 9.81039C87.3198 11.8989 88.3407 14.3171 88.3407 17.0651C88.3407 17.5598 88.2993 18.0819 88.2166 18.6315H71.4538ZM77.9106 10.1814C76.7792 10.1814 75.7169 10.4287 74.7236 10.9233C73.7302 11.418 72.93 12.0775 72.323 12.9019C71.7435 13.6988 71.4538 14.5507 71.4538 15.4576H84.3673C84.3673 14.5507 84.0638 13.6988 83.4568 12.9019C82.8773 12.0775 82.0909 11.418 81.0976 10.9233C80.1042 10.4287 79.0419 10.1814 77.9106 10.1814Z" fill="#222222"/>
<path d="M99.6394 10.7172C98.9772 10.415 98.3839 10.2638 97.8597 10.2638C96.756 10.2638 95.8454 10.6485 95.128 11.418C94.3554 12.2424 93.9691 13.1904 93.9691 14.2622V27.3702H90.4096V14.2622C90.4096 12.7782 90.7821 11.418 91.5271 10.1814C92.2997 8.94477 93.3482 7.98297 94.6727 7.29596C95.666 6.8288 96.7284 6.59522 97.8597 6.59522C98.7702 6.59522 99.6394 6.7601 100.467 7.08986C101.295 7.41962 102.164 7.95549 103.075 8.69745L99.6394 10.7172Z" fill="#222222"/>
<path d="M105.815 3.79225C105.291 3.79225 104.836 3.61363 104.449 3.25639C104.091 2.87167 103.911 2.41825 103.911 1.89613C103.911 1.374 104.091 0.934324 104.449 0.577082C104.836 0.192361 105.291 0 105.815 0C106.339 0 106.781 0.192361 107.14 0.577082C107.526 0.934324 107.719 1.374 107.719 1.89613C107.719 2.41825 107.526 2.87167 107.14 3.25639C106.781 3.61363 106.339 3.79225 105.815 3.79225ZM104.118 27.3702V6.7601H107.595V27.3702H104.118Z" fill="#222222"/>
<path d="M112.525 18.6315C112.525 19.291 112.759 19.978 113.228 20.6925C113.725 21.407 114.291 22.0115 114.925 22.5062C116.084 23.413 117.436 23.8665 118.982 23.8665C121.437 23.8665 123.438 22.6848 124.983 20.3215L128.129 22.1764C127.053 23.9077 125.728 25.2405 124.155 26.1748C122.582 27.1091 120.858 27.5763 118.982 27.5763C117.574 27.5763 116.236 27.3152 114.967 26.7931C113.698 26.2435 112.58 25.4878 111.614 24.526C110.649 23.5642 109.89 22.4512 109.338 21.1871C108.814 19.9231 108.551 18.5903 108.551 17.1888C108.551 15.7873 108.814 14.4545 109.338 13.1904C109.89 11.8989 110.649 10.7722 111.614 9.81039C112.552 8.84859 113.656 8.10663 114.925 7.5845C116.222 7.06238 117.574 6.80132 118.982 6.80132C120.389 6.80132 121.727 7.06238 122.996 7.5845C124.293 8.10663 125.411 8.84859 126.349 9.81039C128.391 11.8989 129.412 14.3171 129.412 17.0651C129.412 17.5598 129.37 18.0819 129.288 18.6315H112.525ZM118.982 10.1814C117.85 10.1814 116.788 10.4287 115.795 10.9233C114.801 11.418 114.001 12.0775 113.394 12.9019C112.815 13.6988 112.525 14.5507 112.525 15.4576H125.438C125.438 14.5507 125.135 13.6988 124.528 12.9019C123.948 12.0775 123.162 11.418 122.169 10.9233C121.175 10.4287 120.113 10.1814 118.982 10.1814Z" fill="#222222"/>
<path d="M144.27 27.3702V15.0041C144.27 13.7675 143.815 12.6958 142.904 11.789C142.021 10.9096 140.945 10.4699 139.676 10.4699C138.434 10.4699 137.358 10.9233 136.447 11.8302C136.033 12.2424 135.702 12.737 135.454 13.3141C135.206 13.8637 135.081 14.427 135.081 15.0041V27.3702H131.481V7.25474H135.081V8.94477C135.606 8.31273 136.296 7.79061 137.151 7.3784C138.006 6.9662 138.848 6.7601 139.676 6.7601C140.779 6.7601 141.828 6.97994 142.821 7.41962C143.842 7.83183 144.739 8.42265 145.512 9.19209C146.257 9.93405 146.836 10.8134 147.25 11.8302C147.692 12.8195 147.912 13.8774 147.912 15.0041V27.3702H144.27Z" fill="#222222"/>
<path d="M159.928 27.5763C158.521 27.5763 157.182 27.3152 155.913 26.7931C154.671 26.2435 153.568 25.4878 152.602 24.526C151.664 23.5917 150.919 22.4925 150.367 21.2284C149.843 19.9368 149.58 18.5903 149.58 17.1888C149.58 15.7873 149.843 14.4545 150.367 13.1904C150.919 11.8989 151.664 10.7859 152.602 9.85161C153.568 8.88981 154.671 8.14785 155.913 7.62572C157.182 7.07612 158.521 6.80132 159.928 6.80132C163.184 6.80132 165.943 8.17533 168.206 10.9233L164.977 12.7782C163.543 11.2668 161.859 10.5111 159.928 10.5111C159.017 10.5111 158.148 10.6898 157.32 11.047C156.52 11.3768 155.816 11.8439 155.209 12.4485C154.602 13.053 154.119 13.7675 153.761 14.5919C153.402 15.4163 153.223 16.282 153.223 17.1888C153.223 18.0956 153.402 18.9613 153.761 19.7857C154.119 20.6101 154.602 21.3245 155.209 21.9291C155.816 22.5337 156.52 23.0146 157.32 23.3718C158.148 23.7016 159.017 23.8665 159.928 23.8665C161.859 23.8665 163.543 23.1108 164.977 21.5993L168.206 23.4543C165.943 26.2023 163.184 27.5763 159.928 27.5763Z" fill="#222222"/>
<path d="M172.593 18.6315C172.593 19.291 172.828 19.978 173.297 20.6925C173.793 21.407 174.359 22.0115 174.994 22.5062C176.153 23.413 177.505 23.8665 179.05 23.8665C181.506 23.8665 183.506 22.6848 185.051 20.3215L188.197 22.1764C187.121 23.9077 185.796 25.2405 184.223 26.1748C182.651 27.1091 180.926 27.5763 179.05 27.5763C177.643 27.5763 176.304 27.3152 175.035 26.7931C173.766 26.2435 172.648 25.4878 171.682 24.526C170.717 23.5642 169.958 22.4512 169.406 21.1871C168.882 19.9231 168.62 18.5903 168.62 17.1888C168.62 15.7873 168.882 14.4545 169.406 13.1904C169.958 11.8989 170.717 10.7722 171.682 9.81039C172.621 8.84859 173.724 8.10663 174.994 7.5845C176.29 7.06238 177.643 6.80132 179.05 6.80132C180.457 6.80132 181.795 7.06238 183.065 7.5845C184.361 8.10663 185.479 8.84859 186.417 9.81039C188.459 11.8989 189.48 14.3171 189.48 17.0651C189.48 17.5598 189.439 18.0819 189.356 18.6315H172.593ZM179.05 10.1814C177.919 10.1814 176.856 10.4287 175.863 10.9233C174.869 11.418 174.069 12.0775 173.462 12.9019C172.883 13.6988 172.593 14.5507 172.593 15.4576H185.507C185.507 14.5507 185.203 13.6988 184.596 12.9019C184.017 12.0775 183.23 11.418 182.237 10.9233C181.243 10.4287 180.181 10.1814 179.05 10.1814Z" fill="#222222"/>
<path d="M41.0004 40H32.2065L23.8123 26.6291C21.7337 22.383 22.9462 17.4429 23.8123 15.5036L32.3064 2.7451H41.0004L30.4077 18.1574C29.5283 20.6887 30.0413 22.9546 30.4077 23.7712L41.0004 40Z" fill="#47B671"/>
<path d="M0.47998 40H9.27389L17.6681 26.6291C19.7466 22.383 18.5341 17.4429 17.6681 15.5036L9.17396 2.7451H0.479985L11.0726 18.1574C11.952 20.6887 11.4391 22.9546 11.0726 23.7712L0.47998 40Z" fill="#47B671"/>
<path d="M60.2692 37.6471V35.6078L58.4517 32.1569H59.3408L60.7649 35.0431H60.5682L61.9845 32.1569H62.8657L61.056 35.6078V37.6471H60.2692Z" fill="#222222"/>
<path d="M64.6579 37.7412C64.2855 37.7412 63.9498 37.6549 63.6508 37.4824C63.3571 37.3098 63.1237 37.0693 62.9506 36.7608C62.7827 36.4471 62.6988 36.0863 62.6988 35.6784C62.6988 35.2601 62.7853 34.8967 62.9584 34.5882C63.1315 34.2745 63.3676 34.0314 63.6666 33.8588C63.9655 33.6863 64.3012 33.6 64.6737 33.6C65.0513 33.6 65.387 33.6863 65.6808 33.8588C65.9745 34.0314 66.2053 34.2719 66.3732 34.5804C66.5463 34.8889 66.6328 35.2523 66.6328 35.6706C66.6328 36.0889 66.5463 36.4523 66.3732 36.7608C66.2053 37.0693 65.9719 37.3098 65.6729 37.4824C65.3739 37.6549 65.0356 37.7412 64.6579 37.7412ZM64.6579 37.0667C64.873 37.0667 65.0671 37.0144 65.2402 36.9098C65.4185 36.8052 65.5601 36.651 65.665 36.4471C65.7752 36.2379 65.8303 35.9791 65.8303 35.6706C65.8303 35.3621 65.7778 35.1059 65.6729 34.902C65.568 34.6928 65.4264 34.5359 65.248 34.4314C65.0749 34.3268 64.8835 34.2745 64.6737 34.2745C64.4639 34.2745 64.2698 34.3268 64.0914 34.4314C63.9131 34.5359 63.7688 34.6928 63.6587 34.902C63.5538 35.1059 63.5013 35.3621 63.5013 35.6706C63.5013 35.9791 63.5538 36.2379 63.6587 36.4471C63.7688 36.651 63.9105 36.8052 64.0836 36.9098C64.2619 37.0144 64.4534 37.0667 64.6579 37.0667Z" fill="#222222"/>
<path d="M69.0139 37.7412C68.7045 37.7412 68.4343 37.6784 68.2035 37.5529C67.978 37.4275 67.8023 37.2392 67.6764 36.9882C67.5557 36.7373 67.4954 36.4209 67.4954 36.0392V33.6941H68.2822V35.9529C68.2822 36.3242 68.3635 36.6039 68.5261 36.7922C68.6887 36.9804 68.9221 37.0745 69.2264 37.0745C69.4309 37.0745 69.6145 37.0248 69.7771 36.9255C69.945 36.8261 70.0761 36.6824 70.1705 36.4941C70.265 36.3059 70.3122 36.0758 70.3122 35.8039V33.6941H71.099V37.6471H70.3987L70.3436 36.9725C70.223 37.2131 70.0473 37.4013 69.8165 37.5373C69.5857 37.6732 69.3182 37.7412 69.0139 37.7412Z" fill="#222222"/>
<path d="M72.1762 37.6471V33.6941H72.8843L72.9551 34.4392C73.0443 34.2614 73.1597 34.1124 73.3013 33.9922C73.443 33.8667 73.6082 33.7699 73.797 33.702C73.9911 33.634 74.2114 33.6 74.4579 33.6V34.4314H74.1747C74.0121 34.4314 73.8573 34.4523 73.7105 34.4941C73.5636 34.5307 73.4325 34.5961 73.3171 34.6902C73.2069 34.7843 73.1204 34.9124 73.0574 35.0745C72.9945 35.2366 72.963 35.4379 72.963 35.6784V37.6471H72.1762Z" fill="#222222"/>
<path d="M76.4383 39.3726V38.7059H76.753C76.9418 38.7059 77.0756 38.6667 77.1543 38.5882C77.233 38.5098 77.2723 38.3791 77.2723 38.1961V33.6941H78.0591V38.2118C78.0591 38.4837 78.0119 38.7059 77.9175 38.8784C77.8283 39.051 77.6945 39.1765 77.5162 39.2549C77.3379 39.3333 77.1228 39.3726 76.871 39.3726H76.4383ZM77.6736 32.949C77.5215 32.949 77.3956 32.902 77.2959 32.8078C77.2015 32.7137 77.1543 32.5935 77.1543 32.4471C77.1543 32.3059 77.2015 32.1908 77.2959 32.102C77.3956 32.0078 77.5215 31.9608 77.6736 31.9608C77.8204 31.9608 77.9411 32.0078 78.0355 32.102C78.1352 32.1908 78.185 32.3059 78.185 32.4471C78.185 32.5935 78.1352 32.7137 78.0355 32.8078C77.9411 32.902 77.8204 32.949 77.6736 32.949Z" fill="#222222"/>
<path d="M80.9857 37.7412C80.6132 37.7412 80.2775 37.6549 79.9785 37.4824C79.6848 37.3098 79.4514 37.0693 79.2783 36.7608C79.1104 36.4471 79.0265 36.0863 79.0265 35.6784C79.0265 35.2601 79.1131 34.8967 79.2862 34.5882C79.4593 34.2745 79.6953 34.0314 79.9943 33.8588C80.2933 33.6863 80.629 33.6 81.0014 33.6C81.3791 33.6 81.7148 33.6863 82.0085 33.8588C82.3022 34.0314 82.533 34.2719 82.7009 34.5804C82.874 34.8889 82.9605 35.2523 82.9605 35.6706C82.9605 36.0889 82.874 36.4523 82.7009 36.7608C82.533 37.0693 82.2996 37.3098 82.0006 37.4824C81.7016 37.6549 81.3633 37.7412 80.9857 37.7412ZM80.9857 37.0667C81.2007 37.0667 81.3948 37.0144 81.5679 36.9098C81.7462 36.8052 81.8879 36.651 81.9928 36.4471C82.1029 36.2379 82.158 35.9791 82.158 35.6706C82.158 35.3621 82.1055 35.1059 82.0006 34.902C81.8957 34.6928 81.7541 34.5359 81.5758 34.4314C81.4027 34.3268 81.2112 34.2745 81.0014 34.2745C80.7916 34.2745 80.5975 34.3268 80.4192 34.4314C80.2408 34.5359 80.0966 34.6928 79.9864 34.902C79.8815 35.1059 79.829 35.3621 79.829 35.6706C79.829 35.9791 79.8815 36.2379 79.9864 36.4471C80.0966 36.651 80.2382 36.8052 80.4113 36.9098C80.5896 37.0144 80.7811 37.0667 80.9857 37.0667Z" fill="#222222"/>
<path d="M85.3417 37.7412C85.0322 37.7412 84.762 37.6784 84.5312 37.5529C84.3057 37.4275 84.13 37.2392 84.0041 36.9882C83.8834 36.7373 83.8231 36.4209 83.8231 36.0392V33.6941H84.6099V35.9529C84.6099 36.3242 84.6912 36.6039 84.8538 36.7922C85.0164 36.9804 85.2499 37.0745 85.5541 37.0745C85.7587 37.0745 85.9423 37.0248 86.1049 36.9255C86.2727 36.8261 86.4038 36.6824 86.4983 36.4941C86.5927 36.3059 86.6399 36.0758 86.6399 35.8039V33.6941H87.4267V37.6471H86.7264L86.6714 36.9725C86.5507 37.2131 86.375 37.4013 86.1442 37.5373C85.9134 37.6732 85.6459 37.7412 85.3417 37.7412Z" fill="#222222"/>
<path d="M88.5039 37.6471V33.6941H89.2121L89.2829 34.4392C89.372 34.2614 89.4874 34.1124 89.6291 33.9922C89.7707 33.8667 89.9359 33.7699 90.1247 33.702C90.3188 33.634 90.5391 33.6 90.7857 33.6V34.4314H90.5024C90.3398 34.4314 90.1851 34.4523 90.0382 34.4941C89.8913 34.5307 89.7602 34.5961 89.6448 34.6902C89.5346 34.7843 89.4481 34.9124 89.3852 35.0745C89.3222 35.2366 89.2907 35.4379 89.2907 35.6784V37.6471H88.5039Z" fill="#222222"/>
<path d="M91.5082 37.6471V33.6941H92.2164L92.2636 34.3686C92.3895 34.1333 92.5678 33.9477 92.7986 33.8118C93.0294 33.6706 93.2943 33.6 93.5933 33.6C93.908 33.6 94.1781 33.6627 94.4037 33.7882C94.6292 33.9137 94.8049 34.1046 94.9308 34.3608C95.0567 34.6118 95.1197 34.9281 95.1197 35.3098V37.6471H94.3329V35.3882C94.3329 35.0222 94.2516 34.7451 94.089 34.5569C93.9263 34.3686 93.6903 34.2745 93.3808 34.2745C93.1763 34.2745 92.9927 34.3242 92.8301 34.4235C92.6675 34.5176 92.5363 34.6588 92.4367 34.8471C92.3422 35.0353 92.295 35.2654 92.295 35.5373V37.6471H91.5082Z" fill="#222222"/>
<path d="M97.92 37.7412C97.5423 37.7412 97.2066 37.6549 96.9129 37.4824C96.6192 37.3098 96.3884 37.0693 96.2205 36.7608C96.0579 36.4523 95.9766 36.0941 95.9766 35.6863C95.9766 35.268 96.0579 34.9046 96.2205 34.5961C96.3884 34.2824 96.6192 34.0392 96.9129 33.8667C97.2066 33.6889 97.5476 33.6 97.9358 33.6C98.3239 33.6 98.657 33.6863 98.935 33.8588C99.213 34.0314 99.4281 34.2614 99.5802 34.549C99.7323 34.8314 99.8083 35.1451 99.8083 35.4902C99.8083 35.5425 99.8057 35.6 99.8005 35.6627C99.8005 35.7203 99.7979 35.7856 99.7926 35.8588H96.551V35.302H99.0215C99.0058 34.9725 98.8957 34.7163 98.6911 34.5333C98.4865 34.3451 98.2321 34.251 97.9279 34.251C97.7128 34.251 97.5161 34.3007 97.3378 34.4C97.1594 34.4941 97.0152 34.6353 96.905 34.8235C96.8001 35.0065 96.7477 35.2392 96.7477 35.5216V35.7412C96.7477 36.034 96.8001 36.2824 96.905 36.4863C97.0152 36.685 97.1594 36.8366 97.3378 36.9412C97.5161 37.0405 97.7102 37.0902 97.92 37.0902C98.1718 37.0902 98.379 37.0353 98.5416 36.9255C98.7042 36.8157 98.8248 36.6667 98.9035 36.4784H99.6903C99.6221 36.719 99.5067 36.9359 99.3441 37.1294C99.1815 37.3176 98.9796 37.4667 98.7383 37.5765C98.5022 37.6863 98.2295 37.7412 97.92 37.7412Z" fill="#222222"/>
<path d="M100.97 39.3726L101.938 37.2078H101.709L100.144 33.6941H100.993L102.237 36.5647L103.488 33.6941H104.314L101.796 39.3726H100.97Z" fill="#222222"/>
<path d="M108.556 37.7412C108.22 37.7412 107.926 37.6863 107.675 37.5765C107.423 37.4667 107.223 37.3124 107.077 37.1137C106.93 36.915 106.841 36.6824 106.809 36.4157H107.612C107.638 36.5412 107.688 36.6562 107.761 36.7608C107.84 36.8654 107.945 36.949 108.076 37.0118C108.212 37.0745 108.372 37.1059 108.556 37.1059C108.729 37.1059 108.87 37.0824 108.981 37.0353C109.096 36.983 109.18 36.915 109.232 36.8314C109.285 36.7425 109.311 36.6484 109.311 36.549C109.311 36.4026 109.274 36.2928 109.201 36.2196C109.133 36.1412 109.028 36.081 108.886 36.0392C108.75 35.9922 108.585 35.9503 108.391 35.9137C108.207 35.8824 108.029 35.8405 107.856 35.7882C107.688 35.7307 107.536 35.6601 107.399 35.5765C107.268 35.4928 107.163 35.3882 107.084 35.2627C107.006 35.132 106.966 34.9725 106.966 34.7843C106.966 34.5595 107.027 34.3582 107.147 34.1804C107.268 33.9974 107.438 33.8562 107.659 33.7569C107.884 33.6523 108.149 33.6 108.453 33.6C108.894 33.6 109.248 33.7046 109.516 33.9137C109.783 34.1229 109.941 34.4183 109.988 34.8H109.225C109.204 34.6222 109.125 34.4863 108.988 34.3922C108.852 34.2928 108.671 34.2431 108.446 34.2431C108.22 34.2431 108.047 34.2876 107.926 34.3765C107.806 34.4654 107.745 34.583 107.745 34.7294C107.745 34.8235 107.779 34.9072 107.848 34.9804C107.916 35.0536 108.015 35.1163 108.147 35.1686C108.283 35.2157 108.448 35.2601 108.642 35.302C108.92 35.3542 109.169 35.4196 109.39 35.498C109.61 35.5765 109.786 35.6915 109.917 35.8431C110.048 35.9948 110.114 36.2118 110.114 36.4941C110.119 36.7399 110.056 36.9569 109.925 37.1451C109.799 37.3333 109.618 37.4797 109.382 37.5843C109.151 37.6889 108.876 37.7412 108.556 37.7412Z" fill="#222222"/>
<path d="M112.515 37.6471C112.263 37.6471 112.046 37.6078 111.862 37.5294C111.679 37.451 111.537 37.3203 111.437 37.1373C111.338 36.9542 111.288 36.7059 111.288 36.3922V34.3608H110.603V33.6941H111.288L111.382 32.7059H112.075V33.6941H113.2V34.3608H112.075V36.4C112.075 36.6248 112.122 36.7791 112.216 36.8627C112.311 36.9412 112.473 36.9804 112.704 36.9804H113.16V37.6471H112.515Z" fill="#222222"/>
<path d="M115.381 37.7412C115.056 37.7412 114.786 37.6863 114.571 37.5765C114.356 37.4667 114.196 37.3203 114.091 37.1373C113.986 36.949 113.934 36.7477 113.934 36.5333C113.934 36.2719 114.002 36.0497 114.138 35.8667C114.275 35.6784 114.469 35.5346 114.72 35.4353C114.972 35.3359 115.274 35.2863 115.625 35.2863H116.656C116.656 35.0562 116.622 34.8654 116.554 34.7137C116.485 34.5621 116.383 34.4497 116.247 34.3765C116.116 34.298 115.948 34.2588 115.743 34.2588C115.507 34.2588 115.305 34.3163 115.137 34.4314C114.97 34.5412 114.865 34.7059 114.823 34.9255H114.036C114.067 34.6484 114.162 34.4131 114.319 34.2196C114.482 34.0209 114.689 33.8693 114.941 33.7647C115.193 33.6549 115.46 33.6 115.743 33.6C116.116 33.6 116.428 33.6654 116.68 33.7961C116.931 33.9268 117.12 34.1124 117.246 34.3529C117.377 34.5882 117.443 34.8706 117.443 35.2V37.6471H116.758L116.695 36.9804C116.638 37.085 116.569 37.1843 116.491 37.2784C116.412 37.3725 116.318 37.4536 116.207 37.5216C116.103 37.5895 115.979 37.6418 115.838 37.6784C115.701 37.7203 115.549 37.7412 115.381 37.7412ZM115.531 37.1059C115.699 37.1059 115.851 37.0719 115.987 37.0039C116.124 36.9359 116.239 36.8444 116.333 36.7294C116.433 36.6092 116.506 36.4758 116.554 36.3294C116.606 36.1778 116.635 36.0235 116.64 35.8667V35.8431H115.704C115.478 35.8431 115.295 35.8719 115.153 35.9294C115.017 35.9817 114.917 36.0549 114.854 36.149C114.791 36.2431 114.76 36.3529 114.76 36.4784C114.76 36.6091 114.789 36.7216 114.846 36.8157C114.909 36.9046 114.998 36.9752 115.114 37.0275C115.229 37.0797 115.368 37.1059 115.531 37.1059Z" fill="#222222"/>
<path d="M118.447 37.6471V33.6941H119.155L119.226 34.4392C119.315 34.2614 119.431 34.1124 119.572 33.9922C119.714 33.8667 119.879 33.7699 120.068 33.702C120.262 33.634 120.482 33.6 120.729 33.6V34.4314H120.446C120.283 34.4314 120.128 34.4523 119.981 34.4941C119.834 34.5307 119.703 34.5961 119.588 34.6902C119.478 34.7843 119.391 34.9124 119.328 35.0745C119.265 35.2366 119.234 35.4379 119.234 35.6784V37.6471H118.447Z" fill="#222222"/>
<path d="M123.088 37.6471C122.836 37.6471 122.618 37.6078 122.435 37.5294C122.251 37.451 122.11 37.3203 122.01 37.1373C121.91 36.9542 121.86 36.7059 121.86 36.3922V34.3608H121.176V33.6941H121.86L121.955 32.7059H122.647V33.6941H123.772V34.3608H122.647V36.4C122.647 36.6248 122.695 36.7791 122.789 36.8627C122.883 36.9412 123.046 36.9804 123.277 36.9804H123.733V37.6471H123.088Z" fill="#222222"/>
<path d="M126.174 37.7412C125.839 37.7412 125.545 37.6863 125.293 37.5765C125.041 37.4667 124.842 37.3124 124.695 37.1137C124.548 36.915 124.459 36.6824 124.428 36.4157H125.23C125.256 36.5412 125.306 36.6562 125.38 36.7608C125.458 36.8654 125.563 36.949 125.694 37.0118C125.831 37.0745 125.991 37.1059 126.174 37.1059C126.347 37.1059 126.489 37.0824 126.599 37.0353C126.715 36.983 126.799 36.915 126.851 36.8314C126.903 36.7425 126.93 36.6484 126.93 36.549C126.93 36.4026 126.893 36.2928 126.82 36.2196C126.751 36.1412 126.646 36.081 126.505 36.0392C126.368 35.9922 126.203 35.9503 126.009 35.9137C125.826 35.8824 125.647 35.8405 125.474 35.7882C125.306 35.7307 125.154 35.6601 125.018 35.5765C124.887 35.4928 124.782 35.3882 124.703 35.2627C124.624 35.132 124.585 34.9725 124.585 34.7843C124.585 34.5595 124.645 34.3582 124.766 34.1804C124.887 33.9974 125.057 33.8562 125.277 33.7569C125.503 33.6523 125.768 33.6 126.072 33.6C126.513 33.6 126.867 33.7046 127.134 33.9137C127.402 34.1229 127.559 34.4183 127.606 34.8H126.843C126.822 34.6222 126.743 34.4863 126.607 34.3922C126.471 34.2928 126.29 34.2431 126.064 34.2431C125.839 34.2431 125.666 34.2876 125.545 34.3765C125.424 34.4654 125.364 34.583 125.364 34.7294C125.364 34.8235 125.398 34.9072 125.466 34.9804C125.534 35.0536 125.634 35.1163 125.765 35.1686C125.902 35.2157 126.067 35.2601 126.261 35.302C126.539 35.3542 126.788 35.4196 127.008 35.498C127.229 35.5765 127.404 35.6915 127.535 35.8431C127.667 35.9948 127.732 36.2118 127.732 36.4941C127.737 36.7399 127.674 36.9569 127.543 37.1451C127.417 37.3333 127.237 37.4797 127 37.5843C126.77 37.6889 126.494 37.7412 126.174 37.7412Z" fill="#222222"/>
<path d="M131.474 37.6471L130.31 33.6941H131.089L131.954 36.9882L131.805 36.9804L132.765 33.6941H133.646L134.606 36.9804L134.456 36.9882L135.314 33.6941H136.109L134.944 37.6471H134.134L133.127 34.2196H133.284L132.277 37.6471H131.474Z" fill="#222222"/>
<path d="M136.874 37.6471V33.6941H137.661V37.6471H136.874ZM137.275 32.949C137.123 32.949 136.997 32.902 136.897 32.8078C136.803 32.7137 136.756 32.5935 136.756 32.4471C136.756 32.3059 136.803 32.1908 136.897 32.102C136.997 32.0078 137.123 31.9608 137.275 31.9608C137.422 31.9608 137.545 32.0078 137.645 32.102C137.744 32.1908 137.794 32.3059 137.794 32.4471C137.794 32.5935 137.744 32.7137 137.645 32.8078C137.545 32.902 137.422 32.949 137.275 32.949Z" fill="#222222"/>
<path d="M140.422 37.6471C140.17 37.6471 139.953 37.6078 139.769 37.5294C139.586 37.451 139.444 37.3203 139.344 37.1373C139.245 36.9542 139.195 36.7059 139.195 36.3922V34.3608H138.51V33.6941H139.195L139.289 32.7059H139.982V33.6941H141.107V34.3608H139.982V36.4C139.982 36.6248 140.029 36.7791 140.123 36.8627C140.218 36.9412 140.38 36.9804 140.611 36.9804H141.067V37.6471H140.422Z" fill="#222222"/>
<path d="M141.974 37.6471V32H142.761V34.3373C142.892 34.1072 143.073 33.9268 143.304 33.7961C143.54 33.6654 143.8 33.6 144.083 33.6C144.398 33.6 144.668 33.6654 144.893 33.7961C145.119 33.9216 145.292 34.1124 145.413 34.3686C145.533 34.6196 145.594 34.9359 145.594 35.3176V37.6471H144.815V35.3961C144.815 35.0301 144.736 34.7529 144.579 34.5647C144.421 34.3712 144.188 34.2745 143.878 34.2745C143.669 34.2745 143.48 34.3242 143.312 34.4235C143.144 34.5229 143.01 34.6693 142.911 34.8627C142.811 35.051 142.761 35.281 142.761 35.5529V37.6471H141.974Z" fill="#222222"/>
<path d="M150.407 37.7412C150.029 37.7412 149.694 37.6549 149.4 37.4824C149.106 37.3098 148.875 37.0693 148.707 36.7608C148.545 36.4523 148.464 36.0941 148.464 35.6863C148.464 35.268 148.545 34.9046 148.707 34.5961C148.875 34.2824 149.106 34.0392 149.4 33.8667C149.694 33.6889 150.034 33.6 150.423 33.6C150.811 33.6 151.144 33.6863 151.422 33.8588C151.7 34.0314 151.915 34.2614 152.067 34.549C152.219 34.8314 152.295 35.1451 152.295 35.4902C152.295 35.5425 152.293 35.6 152.287 35.6627C152.287 35.7203 152.285 35.7856 152.279 35.8588H149.038V35.302H151.508C151.493 34.9725 151.383 34.7163 151.178 34.5333C150.973 34.3451 150.719 34.251 150.415 34.251C150.2 34.251 150.003 34.3007 149.825 34.4C149.646 34.4941 149.502 34.6353 149.392 34.8235C149.287 35.0065 149.235 35.2392 149.235 35.5216V35.7412C149.235 36.034 149.287 36.2824 149.392 36.4863C149.502 36.685 149.646 36.8366 149.825 36.9412C150.003 37.0405 150.197 37.0902 150.407 37.0902C150.659 37.0902 150.866 37.0353 151.028 36.9255C151.191 36.8157 151.312 36.6667 151.39 36.4784H152.177C152.109 36.719 151.994 36.9359 151.831 37.1294C151.668 37.3176 151.466 37.4667 151.225 37.5765C150.989 37.6863 150.716 37.7412 150.407 37.7412Z" fill="#222222"/>
<path d="M152.577 37.6471L153.946 35.6706L152.577 33.6941H153.426L154.465 35.2314L155.511 33.6941H156.353L154.984 35.6706L156.353 37.6471H155.511L154.465 36.102L153.426 37.6471H152.577Z" fill="#222222"/>
<path d="M157.042 39.3726V33.6941H157.75L157.829 34.3059C157.913 34.1856 158.018 34.0732 158.143 33.9686C158.269 33.8588 158.419 33.7699 158.592 33.702C158.77 33.634 158.977 33.6 159.214 33.6C159.591 33.6 159.922 33.6915 160.205 33.8745C160.493 34.0575 160.716 34.3059 160.874 34.6196C161.036 34.9281 161.118 35.281 161.118 35.6784C161.118 36.0758 161.036 36.4314 160.874 36.7451C160.711 37.0536 160.486 37.2967 160.197 37.4745C159.914 37.6523 159.583 37.7412 159.206 37.7412C158.896 37.7412 158.623 37.681 158.387 37.5608C158.151 37.4353 157.965 37.2627 157.829 37.0431V39.3726H157.042ZM159.08 37.0588C159.321 37.0588 159.533 37.0013 159.717 36.8863C159.906 36.7712 160.053 36.6091 160.158 36.4C160.268 36.1908 160.323 35.9477 160.323 35.6706C160.323 35.3935 160.268 35.1529 160.158 34.949C160.053 34.7399 159.906 34.5778 159.717 34.4627C159.533 34.3425 159.321 34.2824 159.08 34.2824C158.833 34.2824 158.616 34.3425 158.427 34.4627C158.243 34.5778 158.099 34.7399 157.994 34.949C157.889 35.1529 157.837 35.3935 157.837 35.6706C157.837 35.9477 157.889 36.1908 157.994 36.4C158.099 36.6091 158.243 36.7712 158.427 36.8863C158.616 37.0013 158.833 37.0588 159.08 37.0588Z" fill="#222222"/>
<path d="M163.83 37.7412C163.453 37.7412 163.117 37.6549 162.823 37.4824C162.529 37.3098 162.299 37.0693 162.131 36.7608C161.968 36.4523 161.887 36.0941 161.887 35.6863C161.887 35.268 161.968 34.9046 162.131 34.5961C162.299 34.2824 162.529 34.0392 162.823 33.8667C163.117 33.6889 163.458 33.6 163.846 33.6C164.234 33.6 164.567 33.6863 164.845 33.8588C165.123 34.0314 165.338 34.2614 165.49 34.549C165.643 34.8314 165.719 35.1451 165.719 35.4902C165.719 35.5425 165.716 35.6 165.711 35.6627C165.711 35.7203 165.708 35.7856 165.703 35.8588H162.461V35.302H164.932C164.916 34.9725 164.806 34.7163 164.601 34.5333C164.397 34.3451 164.142 34.251 163.838 34.251C163.623 34.251 163.426 34.3007 163.248 34.4C163.07 34.4941 162.925 34.6353 162.815 34.8235C162.71 35.0065 162.658 35.2392 162.658 35.5216V35.7412C162.658 36.034 162.71 36.2824 162.815 36.4863C162.925 36.685 163.07 36.8366 163.248 36.9412C163.426 37.0405 163.62 37.0902 163.83 37.0902C164.082 37.0902 164.289 37.0353 164.452 36.9255C164.614 36.8157 164.735 36.6667 164.814 36.4784H165.601C165.532 36.719 165.417 36.9359 165.254 37.1294C165.092 37.3176 164.89 37.4667 164.648 37.5765C164.412 37.6863 164.14 37.7412 163.83 37.7412Z" fill="#222222"/>
<path d="M166.593 37.6471V33.6941H167.301L167.372 34.4392C167.461 34.2614 167.576 34.1124 167.718 33.9922C167.859 33.8667 168.025 33.7699 168.214 33.702C168.408 33.634 168.628 33.6 168.874 33.6V34.4314H168.591C168.429 34.4314 168.274 34.4523 168.127 34.4941C167.98 34.5307 167.849 34.5961 167.734 34.6902C167.623 34.7843 167.537 34.9124 167.474 35.0745C167.411 35.2366 167.38 35.4379 167.38 35.6784V37.6471H166.593Z" fill="#222222"/>
<path d="M169.652 37.6471V33.6941H170.439V37.6471H169.652ZM170.053 32.949C169.901 32.949 169.775 32.902 169.676 32.8078C169.581 32.7137 169.534 32.5935 169.534 32.4471C169.534 32.3059 169.581 32.1908 169.676 32.102C169.775 32.0078 169.901 31.9608 170.053 31.9608C170.2 31.9608 170.323 32.0078 170.423 32.102C170.523 32.1908 170.573 32.3059 170.573 32.4471C170.573 32.5935 170.523 32.7137 170.423 32.8078C170.323 32.902 170.2 32.949 170.053 32.949Z" fill="#222222"/>
<path d="M173.358 37.7412C172.98 37.7412 172.645 37.6549 172.351 37.4824C172.057 37.3098 171.826 37.0693 171.658 36.7608C171.496 36.4523 171.415 36.0941 171.415 35.6863C171.415 35.268 171.496 34.9046 171.658 34.5961C171.826 34.2824 172.057 34.0392 172.351 33.8667C172.645 33.6889 172.986 33.6 173.374 33.6C173.762 33.6 174.095 33.6863 174.373 33.8588C174.651 34.0314 174.866 34.2614 175.018 34.549C175.17 34.8314 175.246 35.1451 175.246 35.4902C175.246 35.5425 175.244 35.6 175.238 35.6627C175.238 35.7203 175.236 35.7856 175.231 35.8588H171.989V35.302H174.459C174.444 34.9725 174.334 34.7163 174.129 34.5333C173.924 34.3451 173.67 34.251 173.366 34.251C173.151 34.251 172.954 34.3007 172.776 34.4C172.597 34.4941 172.453 34.6353 172.343 34.8235C172.238 35.0065 172.186 35.2392 172.186 35.5216V35.7412C172.186 36.034 172.238 36.2824 172.343 36.4863C172.453 36.685 172.597 36.8366 172.776 36.9412C172.954 37.0405 173.148 37.0902 173.358 37.0902C173.61 37.0902 173.817 37.0353 173.98 36.9255C174.142 36.8157 174.263 36.6667 174.341 36.4784H175.128C175.06 36.719 174.945 36.9359 174.782 37.1294C174.619 37.3176 174.417 37.4667 174.176 37.5765C173.94 37.6863 173.667 37.7412 173.358 37.7412Z" fill="#222222"/>
<path d="M176.12 37.6471V33.6941H176.829L176.876 34.3686C177.002 34.1333 177.18 33.9477 177.411 33.8118C177.642 33.6706 177.906 33.6 178.205 33.6C178.52 33.6 178.79 33.6627 179.016 33.7882C179.241 33.9137 179.417 34.1046 179.543 34.3608C179.669 34.6118 179.732 34.9281 179.732 35.3098V37.6471H178.945V35.3882C178.945 35.0222 178.864 34.7451 178.701 34.5569C178.539 34.3686 178.302 34.2745 177.993 34.2745C177.788 34.2745 177.605 34.3242 177.442 34.4235C177.28 34.5176 177.148 34.6588 177.049 34.8471C176.954 35.0353 176.907 35.2654 176.907 35.5373V37.6471H176.12Z" fill="#222222"/>
<path d="M182.572 37.7412C182.189 37.7412 181.848 37.6549 181.549 37.4824C181.25 37.3046 181.014 37.0614 180.841 36.7529C180.673 36.4444 180.589 36.0863 180.589 35.6784C180.589 35.2654 180.673 34.9046 180.841 34.5961C181.014 34.2824 181.25 34.0392 181.549 33.8667C181.848 33.6889 182.189 33.6 182.572 33.6C183.054 33.6 183.458 33.7255 183.783 33.9765C184.108 34.2275 184.316 34.5673 184.405 34.9961H183.587C183.534 34.766 183.413 34.5882 183.225 34.4627C183.041 34.3373 182.821 34.2745 182.564 34.2745C182.354 34.2745 182.16 34.3294 181.981 34.4392C181.803 34.5438 181.659 34.7007 181.549 34.9098C181.444 35.1137 181.391 35.3673 181.391 35.6706C181.391 35.8954 181.423 36.0967 181.486 36.2745C181.549 36.4471 181.633 36.5935 181.738 36.7137C181.848 36.834 181.974 36.9255 182.115 36.9882C182.257 37.0458 182.406 37.0745 182.564 37.0745C182.737 37.0745 182.891 37.0484 183.028 36.9961C183.169 36.9386 183.288 36.8549 183.382 36.7451C183.482 36.6353 183.55 36.5046 183.587 36.3529H184.405C184.316 36.7712 184.108 37.1085 183.783 37.3647C183.458 37.6157 183.054 37.7412 182.572 37.7412Z" fill="#222222"/>
<path d="M187.119 37.7412C186.742 37.7412 186.406 37.6549 186.112 37.4824C185.818 37.3098 185.588 37.0693 185.42 36.7608C185.257 36.4523 185.176 36.0941 185.176 35.6863C185.176 35.268 185.257 34.9046 185.42 34.5961C185.588 34.2824 185.818 34.0392 186.112 33.8667C186.406 33.6889 186.747 33.6 187.135 33.6C187.523 33.6 187.856 33.6863 188.134 33.8588C188.412 34.0314 188.627 34.2614 188.779 34.549C188.932 34.8314 189.008 35.1451 189.008 35.4902C189.008 35.5425 189.005 35.6 189 35.6627C189 35.7203 188.997 35.7856 188.992 35.8588H185.75V35.302H188.221C188.205 34.9725 188.095 34.7163 187.89 34.5333C187.686 34.3451 187.431 34.251 187.127 34.251C186.912 34.251 186.715 34.3007 186.537 34.4C186.359 34.4941 186.214 34.6353 186.104 34.8235C185.999 35.0065 185.947 35.2392 185.947 35.5216V35.7412C185.947 36.034 185.999 36.2824 186.104 36.4863C186.214 36.685 186.359 36.8366 186.537 36.9412C186.715 37.0405 186.91 37.0902 187.119 37.0902C187.371 37.0902 187.578 37.0353 187.741 36.9255C187.903 36.8157 188.024 36.6667 188.103 36.4784H188.89C188.821 36.719 188.706 36.9359 188.543 37.1294C188.381 37.3176 188.179 37.4667 187.938 37.5765C187.702 37.6863 187.429 37.7412 187.119 37.7412Z" fill="#222222"/>
</svg>
