<svg width="189" height="41" viewBox="0 0 189 41" fill="none" xmlns="http://www.w3.org/2000/svg">
<path d="M54.926 28.2411C53.3532 28.2411 52.0425 27.9938 50.994 27.4992C49.9454 26.9771 48.9935 26.1664 48.1381 25.0672V36.6501L44.4544 40.5V7.75474H48.1381V10.6402C48.9935 9.59591 50.0144 8.75777 51.2009 8.12572C52.3874 7.49368 53.6291 7.17766 54.926 7.17766C56.3332 7.17766 57.6715 7.45246 58.9408 8.00206C60.2376 8.52419 61.3552 9.27989 62.2933 10.2692C63.2591 11.2585 64.0041 12.3989 64.5284 13.6904C65.0802 14.9545 65.3561 16.3011 65.3561 17.73C65.3561 19.159 65.0802 20.5055 64.5284 21.7696C64.0041 23.0337 63.2591 24.1604 62.2933 25.1496C61.3552 26.1114 60.2376 26.8671 58.9408 27.4167C57.6715 27.9663 56.3332 28.2411 54.926 28.2411ZM54.926 10.9287C54.0154 10.9287 53.1462 11.1073 52.3185 11.4646C51.4907 11.7943 50.7732 12.2752 50.1662 12.9073C49.5591 13.5393 49.0763 14.2813 48.7176 15.1331C48.3588 15.9575 48.1795 16.8232 48.1795 17.73C48.1795 18.6369 48.3588 19.5025 48.7176 20.3269C49.0763 21.1513 49.5591 21.8795 50.1662 22.5115C50.7732 23.1436 51.4907 23.6382 52.3185 23.9955C53.1462 24.3527 54.0154 24.5313 54.926 24.5313C55.8366 24.5313 56.7057 24.3527 57.5335 23.9955C58.3613 23.6382 59.0787 23.1436 59.6858 22.5115C60.2928 21.8795 60.7619 21.1513 61.093 20.3269C61.4517 19.5025 61.6311 18.6369 61.6311 17.73C61.6311 16.8232 61.4517 15.9575 61.093 15.1331C60.7619 14.2813 60.2928 13.5393 59.6858 12.9073C59.0787 12.2752 58.3613 11.7943 57.5335 11.4646C56.7057 11.1073 55.8366 10.9287 54.926 10.9287Z" fill="white"/>
<path d="M70.9738 19.1315C70.9738 19.791 71.2084 20.478 71.6774 21.1925C72.1741 21.907 72.7398 22.5115 73.3744 23.0062C74.5333 23.913 75.8854 24.3665 77.4306 24.3665C79.8864 24.3665 81.8869 23.1848 83.4321 20.8215L86.5777 22.6764C85.5015 24.4077 84.1771 25.7405 82.6043 26.6748C81.0315 27.6091 79.3069 28.0763 77.4306 28.0763C76.0233 28.0763 74.6851 27.8152 73.4158 27.2931C72.1465 26.7435 71.029 25.9878 70.0632 25.026C69.0975 24.0642 68.3387 22.9512 67.7868 21.6871C67.2626 20.4231 67.0004 19.0903 67.0004 17.6888C67.0004 16.2873 67.2626 14.9545 67.7868 13.6904C68.3387 12.3989 69.0975 11.2722 70.0632 10.3104C71.0014 9.34859 72.1051 8.60663 73.3744 8.0845C74.6713 7.56238 76.0233 7.30132 77.4306 7.30132C78.8378 7.30132 80.1761 7.56238 81.4454 8.0845C82.7422 8.60663 83.8598 9.34859 84.7979 10.3104C86.8398 12.3989 87.8608 14.8171 87.8608 17.5651C87.8608 18.0598 87.8194 18.5819 87.7366 19.1315H70.9738ZM77.4306 10.6814C76.2993 10.6814 75.2369 10.9287 74.2436 11.4233C73.2502 11.918 72.45 12.5775 71.843 13.4019C71.2635 14.1988 70.9738 15.0507 70.9738 15.9576H83.8874C83.8874 15.0507 83.5838 14.1988 82.9768 13.4019C82.3973 12.5775 81.6109 11.918 80.6176 11.4233C79.6242 10.9287 78.5619 10.6814 77.4306 10.6814Z" fill="white"/>
<path d="M99.1594 11.2172C98.4972 10.915 97.904 10.7638 97.3797 10.7638C96.276 10.7638 95.3654 11.1485 94.648 11.918C93.8754 12.7424 93.4891 13.6904 93.4891 14.7622V27.8702H89.9296V14.7622C89.9296 13.2782 90.3021 11.918 91.0471 10.6814C91.8197 9.44477 92.8682 8.48297 94.1927 7.79596C95.1861 7.3288 96.2484 7.09522 97.3797 7.09522C98.2903 7.09522 99.1595 7.2601 99.9872 7.58986C100.815 7.91962 101.684 8.45549 102.595 9.19745L99.1594 11.2172Z" fill="white"/>
<path d="M105.335 4.29225C104.811 4.29225 104.356 4.11363 103.969 3.75639C103.611 3.37167 103.431 2.91825 103.431 2.39613C103.431 1.874 103.611 1.43432 103.969 1.07708C104.356 0.692361 104.811 0.5 105.335 0.5C105.859 0.5 106.301 0.692361 106.66 1.07708C107.046 1.43432 107.239 1.874 107.239 2.39613C107.239 2.91825 107.046 3.37167 106.66 3.75639C106.301 4.11363 105.859 4.29225 105.335 4.29225ZM103.638 27.8702V7.2601H107.115V27.8702H103.638Z" fill="white"/>
<path d="M112.045 19.1315C112.045 19.791 112.279 20.478 112.748 21.1925C113.245 21.907 113.811 22.5115 114.445 23.0062C115.604 23.913 116.956 24.3665 118.502 24.3665C120.957 24.3665 122.958 23.1848 124.503 20.8215L127.649 22.6764C126.573 24.4077 125.248 25.7405 123.675 26.6748C122.103 27.6091 120.378 28.0763 118.502 28.0763C117.094 28.0763 115.756 27.8152 114.487 27.2931C113.218 26.7435 112.1 25.9878 111.134 25.026C110.169 24.0642 109.41 22.9512 108.858 21.6871C108.334 20.4231 108.071 19.0903 108.071 17.6888C108.071 16.2873 108.334 14.9545 108.858 13.6904C109.41 12.3989 110.169 11.2722 111.134 10.3104C112.072 9.34859 113.176 8.60663 114.445 8.0845C115.742 7.56238 117.094 7.30132 118.502 7.30132C119.909 7.30132 121.247 7.56238 122.516 8.0845C123.813 8.60663 124.931 9.34859 125.869 10.3104C127.911 12.3989 128.932 14.8171 128.932 17.5651C128.932 18.0598 128.89 18.5819 128.808 19.1315H112.045ZM118.502 10.6814C117.37 10.6814 116.308 10.9287 115.315 11.4233C114.321 11.918 113.521 12.5775 112.914 13.4019C112.335 14.1988 112.045 15.0507 112.045 15.9576H124.958C124.958 15.0507 124.655 14.1988 124.048 13.4019C123.468 12.5775 122.682 11.918 121.689 11.4233C120.695 10.9287 119.633 10.6814 118.502 10.6814Z" fill="white"/>
<path d="M143.79 27.8702V15.5041C143.79 14.2675 143.335 13.1958 142.424 12.289C141.541 11.4096 140.465 10.9699 139.196 10.9699C137.954 10.9699 136.878 11.4233 135.967 12.3302C135.553 12.7424 135.222 13.237 134.974 13.8141C134.726 14.3637 134.602 14.927 134.602 15.5041V27.8702H131.001V7.75474H134.602V9.44477C135.126 8.81273 135.816 8.29061 136.671 7.8784C137.526 7.4662 138.368 7.2601 139.196 7.2601C140.299 7.2601 141.348 7.47994 142.341 7.91962C143.362 8.33183 144.259 8.92265 145.032 9.69209C145.777 10.4341 146.356 11.3134 146.77 12.3302C147.212 13.3195 147.432 14.3774 147.432 15.5041V27.8702H143.79Z" fill="white"/>
<path d="M159.448 28.0763C158.041 28.0763 156.702 27.8152 155.433 27.2931C154.191 26.7435 153.088 25.9878 152.122 25.026C151.184 24.0917 150.439 22.9925 149.887 21.7284C149.363 20.4368 149.1 19.0903 149.1 17.6888C149.1 16.2873 149.363 14.9545 149.887 13.6904C150.439 12.3989 151.184 11.2859 152.122 10.3516C153.088 9.38981 154.191 8.64785 155.433 8.12572C156.702 7.57612 158.041 7.30132 159.448 7.30132C162.704 7.30132 165.463 8.67533 167.726 11.4233L164.497 13.2782C163.063 11.7668 161.379 11.0111 159.448 11.0111C158.537 11.0111 157.668 11.1898 156.84 11.547C156.04 11.8768 155.337 12.3439 154.729 12.9485C154.122 13.553 153.64 14.2675 153.281 15.0919C152.922 15.9163 152.743 16.782 152.743 17.6888C152.743 18.5956 152.922 19.4613 153.281 20.2857C153.64 21.1101 154.122 21.8245 154.729 22.4291C155.337 23.0337 156.04 23.5146 156.84 23.8718C157.668 24.2016 158.537 24.3665 159.448 24.3665C161.379 24.3665 163.063 23.6108 164.497 22.0993L167.726 23.9543C165.463 26.7023 162.704 28.0763 159.448 28.0763Z" fill="white"/>
<path d="M172.113 19.1315C172.113 19.791 172.348 20.478 172.817 21.1925C173.313 21.907 173.879 22.5115 174.514 23.0062C175.673 23.913 177.025 24.3665 178.57 24.3665C181.026 24.3665 183.026 23.1848 184.571 20.8215L187.717 22.6764C186.641 24.4077 185.316 25.7405 183.744 26.6748C182.171 27.6091 180.446 28.0763 178.57 28.0763C177.163 28.0763 175.824 27.8152 174.555 27.2931C173.286 26.7435 172.168 25.9878 171.202 25.026C170.237 24.0642 169.478 22.9512 168.926 21.6871C168.402 20.4231 168.14 19.0903 168.14 17.6888C168.14 16.2873 168.402 14.9545 168.926 13.6904C169.478 12.3989 170.237 11.2722 171.202 10.3104C172.141 9.34859 173.244 8.60663 174.514 8.0845C175.811 7.56238 177.163 7.30132 178.57 7.30132C179.977 7.30132 181.315 7.56238 182.585 8.0845C183.881 8.60663 184.999 9.34859 185.937 10.3104C187.979 12.3989 189 14.8171 189 17.5651C189 18.0598 188.959 18.5819 188.876 19.1315H172.113ZM178.57 10.6814C177.439 10.6814 176.376 10.9287 175.383 11.4233C174.389 11.918 173.589 12.5775 172.982 13.4019C172.403 14.1988 172.113 15.0507 172.113 15.9576H185.027C185.027 15.0507 184.723 14.1988 184.116 13.4019C183.537 12.5775 182.75 11.918 181.757 11.4233C180.763 10.9287 179.701 10.6814 178.57 10.6814Z" fill="white"/>
<path d="M40.5204 40.5H31.7265L23.3323 27.1291C21.2537 22.883 22.4662 17.9429 23.3323 16.0036L31.8264 3.2451H40.5204L29.9277 18.6574C29.0484 21.1887 29.5613 23.4546 29.9277 24.2712L40.5204 40.5Z" fill="#47B671"/>
<path d="M0 40.5H8.79391L17.1881 27.1291C19.2667 22.883 18.0542 17.9429 17.1881 16.0036L8.69398 3.2451H4.55645e-06L10.5927 18.6574C11.4721 21.1887 10.9591 23.4546 10.5927 24.2712L0 40.5Z" fill="#47B671"/>
<path d="M59.7892 38.1471V36.1078L57.9717 32.6569H58.8608L60.2849 35.5431H60.0882L61.5045 32.6569H62.3857L60.576 36.1078V38.1471H59.7892Z" fill="white"/>
<path d="M64.1779 38.2412C63.8055 38.2412 63.4698 38.1549 63.1708 37.9824C62.8771 37.8098 62.6437 37.5693 62.4706 37.2608C62.3027 36.9471 62.2188 36.5863 62.2188 36.1784C62.2188 35.7601 62.3054 35.3967 62.4785 35.0882C62.6516 34.7745 62.8876 34.5314 63.1866 34.3588C63.4856 34.1863 63.8213 34.1 64.1937 34.1C64.5714 34.1 64.9071 34.1863 65.2008 34.3588C65.4945 34.5314 65.7253 34.7719 65.8932 35.0804C66.0663 35.3889 66.1528 35.7523 66.1528 36.1706C66.1528 36.5889 66.0663 36.9523 65.8932 37.2608C65.7253 37.5693 65.4919 37.8098 65.1929 37.9824C64.8939 38.1549 64.5556 38.2412 64.1779 38.2412ZM64.1779 37.5667C64.393 37.5667 64.5871 37.5144 64.7602 37.4098C64.9385 37.3052 65.0802 37.151 65.1851 36.9471C65.2952 36.7379 65.3503 36.4791 65.3503 36.1706C65.3503 35.8621 65.2978 35.6059 65.1929 35.402C65.088 35.1928 64.9464 35.0359 64.7681 34.9314C64.595 34.8268 64.4035 34.7745 64.1937 34.7745C63.9839 34.7745 63.7898 34.8268 63.6115 34.9314C63.4331 35.0359 63.2889 35.1928 63.1787 35.402C63.0738 35.6059 63.0213 35.8621 63.0213 36.1706C63.0213 36.4791 63.0738 36.7379 63.1787 36.9471C63.2889 37.151 63.4305 37.3052 63.6036 37.4098C63.7819 37.5144 63.9734 37.5667 64.1779 37.5667Z" fill="white"/>
<path d="M68.534 38.2412C68.2245 38.2412 67.9543 38.1784 67.7235 38.0529C67.498 37.9275 67.3223 37.7392 67.1964 37.4882C67.0757 37.2373 67.0154 36.9209 67.0154 36.5392V34.1941H67.8022V36.4529C67.8022 36.8242 67.8835 37.1039 68.0461 37.2922C68.2087 37.4804 68.4422 37.5745 68.7464 37.5745C68.951 37.5745 69.1346 37.5248 69.2972 37.4255C69.465 37.3261 69.5961 37.1824 69.6906 36.9941C69.785 36.8059 69.8322 36.5758 69.8322 36.3039V34.1941H70.619V38.1471H69.9187L69.8637 37.4725C69.743 37.7131 69.5673 37.9013 69.3365 38.0373C69.1057 38.1732 68.8382 38.2412 68.534 38.2412Z" fill="white"/>
<path d="M71.6962 38.1471V34.1941H72.4044L72.4752 34.9392C72.5643 34.7614 72.6797 34.6124 72.8214 34.4922C72.963 34.3667 73.1282 34.2699 73.317 34.202C73.5111 34.134 73.7314 34.1 73.978 34.1V34.9314H73.6947C73.5321 34.9314 73.3774 34.9523 73.2305 34.9941C73.0836 35.0307 72.9525 35.0961 72.8371 35.1902C72.7269 35.2843 72.6404 35.4124 72.5775 35.5745C72.5145 35.7366 72.483 35.9379 72.483 36.1784V38.1471H71.6962Z" fill="white"/>
<path d="M75.9583 39.8726V39.2059H76.273C76.4619 39.2059 76.5956 39.1667 76.6743 39.0882C76.753 39.0098 76.7923 38.8791 76.7923 38.6961V34.1941H77.5791V38.7118C77.5791 38.9837 77.5319 39.2059 77.4375 39.3784C77.3483 39.551 77.2146 39.6765 77.0362 39.7549C76.8579 39.8333 76.6428 39.8726 76.3911 39.8726H75.9583ZM77.1936 33.449C77.0415 33.449 76.9156 33.402 76.8159 33.3078C76.7215 33.2137 76.6743 33.0935 76.6743 32.9471C76.6743 32.8059 76.7215 32.6908 76.8159 32.602C76.9156 32.5078 77.0415 32.4608 77.1936 32.4608C77.3405 32.4608 77.4611 32.5078 77.5555 32.602C77.6552 32.6908 77.705 32.8059 77.705 32.9471C77.705 33.0935 77.6552 33.2137 77.5555 33.3078C77.4611 33.402 77.3405 33.449 77.1936 33.449Z" fill="white"/>
<path d="M80.5057 38.2412C80.1333 38.2412 79.7975 38.1549 79.4986 37.9824C79.2048 37.8098 78.9714 37.5693 78.7983 37.2608C78.6305 36.9471 78.5465 36.5863 78.5465 36.1784C78.5465 35.7601 78.6331 35.3967 78.8062 35.0882C78.9793 34.7745 79.2153 34.5314 79.5143 34.3588C79.8133 34.1863 80.149 34.1 80.5214 34.1C80.8991 34.1 81.2348 34.1863 81.5285 34.3588C81.8223 34.5314 82.0531 34.7719 82.2209 35.0804C82.394 35.3889 82.4805 35.7523 82.4805 36.1706C82.4805 36.5889 82.394 36.9523 82.2209 37.2608C82.0531 37.5693 81.8196 37.8098 81.5206 37.9824C81.2217 38.1549 80.8833 38.2412 80.5057 38.2412ZM80.5057 37.5667C80.7207 37.5667 80.9148 37.5144 81.0879 37.4098C81.2663 37.3052 81.4079 37.151 81.5128 36.9471C81.6229 36.7379 81.678 36.4791 81.678 36.1706C81.678 35.8621 81.6255 35.6059 81.5206 35.402C81.4157 35.1928 81.2741 35.0359 81.0958 34.9314C80.9227 34.8268 80.7312 34.7745 80.5214 34.7745C80.3116 34.7745 80.1175 34.8268 79.9392 34.9314C79.7608 35.0359 79.6166 35.1928 79.5064 35.402C79.4015 35.6059 79.3491 35.8621 79.3491 36.1706C79.3491 36.4791 79.4015 36.7379 79.5064 36.9471C79.6166 37.151 79.7582 37.3052 79.9313 37.4098C80.1096 37.5144 80.3011 37.5667 80.5057 37.5667Z" fill="white"/>
<path d="M84.8617 38.2412C84.5522 38.2412 84.2821 38.1784 84.0513 38.0529C83.8257 37.9275 83.65 37.7392 83.5241 37.4882C83.4035 37.2373 83.3431 36.9209 83.3431 36.5392V34.1941H84.1299V36.4529C84.1299 36.8242 84.2113 37.1039 84.3739 37.2922C84.5365 37.4804 84.7699 37.5745 85.0741 37.5745C85.2787 37.5745 85.4623 37.5248 85.6249 37.4255C85.7927 37.3261 85.9239 37.1824 86.0183 36.9941C86.1127 36.8059 86.1599 36.5758 86.1599 36.3039V34.1941H86.9467V38.1471H86.2465L86.1914 37.4725C86.0707 37.7131 85.895 37.9013 85.6642 38.0373C85.4334 38.1732 85.1659 38.2412 84.8617 38.2412Z" fill="white"/>
<path d="M88.024 38.1471V34.1941H88.7321L88.8029 34.9392C88.8921 34.7614 89.0075 34.6124 89.1491 34.4922C89.2907 34.3667 89.4559 34.2699 89.6448 34.202C89.8388 34.134 90.0592 34.1 90.3057 34.1V34.9314H90.0224C89.8598 34.9314 89.7051 34.9523 89.5582 34.9941C89.4113 35.0307 89.2802 35.0961 89.1648 35.1902C89.0547 35.2843 88.9681 35.4124 88.9052 35.5745C88.8422 35.7366 88.8108 35.9379 88.8108 36.1784V38.1471H88.024Z" fill="white"/>
<path d="M91.0283 38.1471V34.1941H91.7364L91.7836 34.8686C91.9095 34.6333 92.0878 34.4477 92.3186 34.3118C92.5494 34.1706 92.8143 34.1 93.1133 34.1C93.428 34.1 93.6981 34.1627 93.9237 34.2882C94.1492 34.4137 94.325 34.6046 94.4509 34.8608C94.5767 35.1118 94.6397 35.4281 94.6397 35.8098V38.1471H93.8529V35.8882C93.8529 35.5222 93.7716 35.2451 93.609 35.0569C93.4464 34.8686 93.2103 34.7745 92.9008 34.7745C92.6963 34.7745 92.5127 34.8242 92.3501 34.9235C92.1875 35.0176 92.0563 35.1588 91.9567 35.3471C91.8623 35.5353 91.8151 35.7654 91.8151 36.0373V38.1471H91.0283Z" fill="white"/>
<path d="M97.44 38.2412C97.0624 38.2412 96.7267 38.1549 96.4329 37.9824C96.1392 37.8098 95.9084 37.5693 95.7405 37.2608C95.5779 36.9523 95.4966 36.5941 95.4966 36.1863C95.4966 35.768 95.5779 35.4046 95.7405 35.0961C95.9084 34.7824 96.1392 34.5392 96.4329 34.3667C96.7267 34.1889 97.0676 34.1 97.4558 34.1C97.8439 34.1 98.177 34.1863 98.455 34.3588C98.733 34.5314 98.9481 34.7614 99.1002 35.049C99.2523 35.3314 99.3284 35.6451 99.3284 35.9902C99.3284 36.0425 99.3257 36.1 99.3205 36.1627C99.3205 36.2203 99.3179 36.2856 99.3126 36.3588H96.071V35.802H98.5416C98.5258 35.4725 98.4157 35.2163 98.2111 35.0333C98.0065 34.8451 97.7521 34.751 97.4479 34.751C97.2328 34.751 97.0361 34.8007 96.8578 34.9C96.6795 34.9941 96.5352 35.1353 96.425 35.3235C96.3201 35.5065 96.2677 35.7392 96.2677 36.0216V36.2412C96.2677 36.534 96.3201 36.7824 96.425 36.9863C96.5352 37.185 96.6795 37.3366 96.8578 37.4412C97.0361 37.5405 97.2302 37.5902 97.44 37.5902C97.6918 37.5902 97.899 37.5353 98.0616 37.4255C98.2242 37.3157 98.3449 37.1667 98.4235 36.9784H99.2103C99.1422 37.219 99.0267 37.4359 98.8641 37.6294C98.7015 37.8176 98.4996 37.9667 98.2583 38.0765C98.0223 38.1863 97.7495 38.2412 97.44 38.2412Z" fill="white"/>
<path d="M100.49 39.8726L101.458 37.7078H101.229L99.6637 34.1941H100.513L101.757 37.0647L103.008 34.1941H103.834L101.316 39.8726H100.49Z" fill="white"/>
<path d="M108.076 38.2412C107.74 38.2412 107.446 38.1863 107.195 38.0765C106.943 37.9667 106.743 37.8124 106.597 37.6137C106.45 37.415 106.361 37.1824 106.329 36.9157H107.132C107.158 37.0412 107.208 37.1562 107.281 37.2608C107.36 37.3654 107.465 37.449 107.596 37.5118C107.732 37.5745 107.892 37.6059 108.076 37.6059C108.249 37.6059 108.39 37.5824 108.501 37.5353C108.616 37.483 108.7 37.415 108.752 37.3314C108.805 37.2425 108.831 37.1484 108.831 37.049C108.831 36.9026 108.794 36.7928 108.721 36.7196C108.653 36.6412 108.548 36.581 108.406 36.5392C108.27 36.4922 108.105 36.4503 107.911 36.4137C107.727 36.3824 107.549 36.3405 107.376 36.2882C107.208 36.2307 107.056 36.1601 106.919 36.0765C106.788 35.9928 106.683 35.8882 106.604 35.7627C106.526 35.632 106.486 35.4725 106.486 35.2843C106.486 35.0595 106.547 34.8582 106.667 34.6804C106.788 34.4974 106.959 34.3562 107.179 34.2569C107.404 34.1523 107.669 34.1 107.973 34.1C108.414 34.1 108.768 34.2046 109.036 34.4137C109.303 34.6229 109.461 34.9183 109.508 35.3H108.745C108.724 35.1222 108.645 34.9863 108.509 34.8922C108.372 34.7928 108.191 34.7431 107.966 34.7431C107.74 34.7431 107.567 34.7876 107.446 34.8765C107.326 34.9654 107.265 35.083 107.265 35.2294C107.265 35.3235 107.299 35.4072 107.368 35.4804C107.436 35.5536 107.536 35.6163 107.667 35.6686C107.803 35.7157 107.968 35.7601 108.162 35.802C108.44 35.8542 108.689 35.9196 108.91 35.998C109.13 36.0765 109.306 36.1915 109.437 36.3431C109.568 36.4948 109.634 36.7118 109.634 36.9941C109.639 37.2399 109.576 37.4569 109.445 37.6451C109.319 37.8333 109.138 37.9797 108.902 38.0843C108.671 38.1889 108.396 38.2412 108.076 38.2412Z" fill="white"/>
<path d="M112.035 38.1471C111.783 38.1471 111.566 38.1078 111.382 38.0294C111.199 37.951 111.057 37.8203 110.957 37.6373C110.858 37.4542 110.808 37.2059 110.808 36.8922V34.8608H110.123V34.1941H110.808L110.902 33.2059H111.595V34.1941H112.72V34.8608H111.595V36.9C111.595 37.1248 111.642 37.2791 111.736 37.3627C111.831 37.4412 111.993 37.4804 112.224 37.4804H112.68V38.1471H112.035Z" fill="white"/>
<path d="M114.901 38.2412C114.576 38.2412 114.306 38.1863 114.091 38.0765C113.876 37.9667 113.716 37.8203 113.611 37.6373C113.506 37.449 113.454 37.2477 113.454 37.0333C113.454 36.7719 113.522 36.5497 113.658 36.3667C113.795 36.1784 113.989 36.0346 114.24 35.9353C114.492 35.8359 114.794 35.7863 115.145 35.7863H116.176C116.176 35.5562 116.142 35.3654 116.074 35.2137C116.006 35.0621 115.903 34.9497 115.767 34.8765C115.636 34.798 115.468 34.7588 115.263 34.7588C115.027 34.7588 114.825 34.8163 114.657 34.9314C114.49 35.0412 114.385 35.2059 114.343 35.4255H113.556C113.587 35.1484 113.682 34.9131 113.839 34.7196C114.002 34.5209 114.209 34.3693 114.461 34.2647C114.713 34.1549 114.98 34.1 115.263 34.1C115.636 34.1 115.948 34.1654 116.2 34.2961C116.451 34.4268 116.64 34.6124 116.766 34.8529C116.897 35.0882 116.963 35.3706 116.963 35.7V38.1471H116.278L116.215 37.4804C116.158 37.585 116.089 37.6843 116.011 37.7784C115.932 37.8725 115.838 37.9536 115.728 38.0216C115.623 38.0895 115.499 38.1418 115.358 38.1784C115.221 38.2203 115.069 38.2412 114.901 38.2412ZM115.051 37.6059C115.219 37.6059 115.371 37.5719 115.507 37.5039C115.644 37.4359 115.759 37.3444 115.853 37.2294C115.953 37.1092 116.026 36.9758 116.074 36.8294C116.126 36.6778 116.155 36.5235 116.16 36.3667V36.3431H115.224C114.998 36.3431 114.815 36.3719 114.673 36.4294C114.537 36.4817 114.437 36.5549 114.374 36.649C114.311 36.7431 114.28 36.8529 114.28 36.9784C114.28 37.1091 114.309 37.2216 114.366 37.3157C114.429 37.4046 114.518 37.4752 114.634 37.5275C114.749 37.5797 114.888 37.6059 115.051 37.6059Z" fill="white"/>
<path d="M117.967 38.1471V34.1941H118.675L118.746 34.9392C118.835 34.7614 118.951 34.6124 119.092 34.4922C119.234 34.3667 119.399 34.2699 119.588 34.202C119.782 34.134 120.002 34.1 120.249 34.1V34.9314H119.966C119.803 34.9314 119.648 34.9523 119.501 34.9941C119.354 35.0307 119.223 35.0961 119.108 35.1902C118.998 35.2843 118.911 35.4124 118.848 35.5745C118.785 35.7366 118.754 35.9379 118.754 36.1784V38.1471H117.967Z" fill="white"/>
<path d="M122.608 38.1471C122.356 38.1471 122.138 38.1078 121.955 38.0294C121.771 37.951 121.63 37.8203 121.53 37.6373C121.43 37.4542 121.381 37.2059 121.381 36.8922V34.8608H120.696V34.1941H121.381L121.475 33.2059H122.167V34.1941H123.292V34.8608H122.167V36.9C122.167 37.1248 122.215 37.2791 122.309 37.3627C122.403 37.4412 122.566 37.4804 122.797 37.4804H123.253V38.1471H122.608Z" fill="white"/>
<path d="M125.694 38.2412C125.359 38.2412 125.065 38.1863 124.813 38.0765C124.561 37.9667 124.362 37.8124 124.215 37.6137C124.068 37.415 123.979 37.1824 123.948 36.9157H124.75C124.776 37.0412 124.826 37.1562 124.9 37.2608C124.978 37.3654 125.083 37.449 125.214 37.5118C125.351 37.5745 125.511 37.6059 125.694 37.6059C125.867 37.6059 126.009 37.5824 126.119 37.5353C126.235 37.483 126.319 37.415 126.371 37.3314C126.423 37.2425 126.45 37.1484 126.45 37.049C126.45 36.9026 126.413 36.7928 126.34 36.7196C126.271 36.6412 126.166 36.581 126.025 36.5392C125.888 36.4922 125.723 36.4503 125.529 36.4137C125.346 36.3824 125.167 36.3405 124.994 36.2882C124.826 36.2307 124.674 36.1601 124.538 36.0765C124.407 35.9928 124.302 35.8882 124.223 35.7627C124.144 35.632 124.105 35.4725 124.105 35.2843C124.105 35.0595 124.165 34.8582 124.286 34.6804C124.407 34.4974 124.577 34.3562 124.797 34.2569C125.023 34.1523 125.288 34.1 125.592 34.1C126.033 34.1 126.387 34.2046 126.654 34.4137C126.922 34.6229 127.079 34.9183 127.126 35.3H126.363C126.342 35.1222 126.263 34.9863 126.127 34.8922C125.991 34.7928 125.81 34.7431 125.584 34.7431C125.359 34.7431 125.186 34.7876 125.065 34.8765C124.944 34.9654 124.884 35.083 124.884 35.2294C124.884 35.3235 124.918 35.4072 124.986 35.4804C125.054 35.5536 125.154 35.6163 125.285 35.6686C125.422 35.7157 125.587 35.7601 125.781 35.802C126.059 35.8542 126.308 35.9196 126.528 35.998C126.749 36.0765 126.924 36.1915 127.056 36.3431C127.187 36.4948 127.252 36.7118 127.252 36.9941C127.257 37.2399 127.195 37.4569 127.063 37.6451C126.937 37.8333 126.757 37.9797 126.52 38.0843C126.29 38.1889 126.014 38.2412 125.694 38.2412Z" fill="white"/>
<path d="M130.994 38.1471L129.83 34.1941H130.609L131.474 37.4882L131.325 37.4804L132.285 34.1941H133.166L134.126 37.4804L133.976 37.4882L134.834 34.1941H135.629L134.464 38.1471H133.654L132.647 34.7196H132.804L131.797 38.1471H130.994Z" fill="white"/>
<path d="M136.394 38.1471V34.1941H137.181V38.1471H136.394ZM136.795 33.449C136.643 33.449 136.517 33.402 136.417 33.3078C136.323 33.2137 136.276 33.0935 136.276 32.9471C136.276 32.8059 136.323 32.6908 136.417 32.602C136.517 32.5078 136.643 32.4608 136.795 32.4608C136.942 32.4608 137.065 32.5078 137.165 32.602C137.264 32.6908 137.314 32.8059 137.314 32.9471C137.314 33.0935 137.264 33.2137 137.165 33.3078C137.065 33.402 136.942 33.449 136.795 33.449Z" fill="white"/>
<path d="M139.942 38.1471C139.69 38.1471 139.473 38.1078 139.289 38.0294C139.106 37.951 138.964 37.8203 138.864 37.6373C138.765 37.4542 138.715 37.2059 138.715 36.8922V34.8608H138.03V34.1941H138.715L138.809 33.2059H139.502V34.1941H140.627V34.8608H139.502V36.9C139.502 37.1248 139.549 37.2791 139.643 37.3627C139.738 37.4412 139.9 37.4804 140.131 37.4804H140.587V38.1471H139.942Z" fill="white"/>
<path d="M141.494 38.1471V32.5H142.281V34.8373C142.412 34.6072 142.593 34.4268 142.824 34.2961C143.06 34.1654 143.32 34.1 143.603 34.1C143.918 34.1 144.188 34.1654 144.413 34.2961C144.639 34.4216 144.812 34.6124 144.933 34.8686C145.053 35.1196 145.114 35.4359 145.114 35.8176V38.1471H144.335V35.8961C144.335 35.5301 144.256 35.2529 144.099 35.0647C143.941 34.8712 143.708 34.7745 143.398 34.7745C143.189 34.7745 143 34.8242 142.832 34.9235C142.664 35.0229 142.53 35.1693 142.431 35.3627C142.331 35.551 142.281 35.781 142.281 36.0529V38.1471H141.494Z" fill="white"/>
<path d="M149.927 38.2412C149.549 38.2412 149.214 38.1549 148.92 37.9824C148.626 37.8098 148.395 37.5693 148.227 37.2608C148.065 36.9523 147.984 36.5941 147.984 36.1863C147.984 35.768 148.065 35.4046 148.227 35.0961C148.395 34.7824 148.626 34.5392 148.92 34.3667C149.214 34.1889 149.555 34.1 149.943 34.1C150.331 34.1 150.664 34.1863 150.942 34.3588C151.22 34.5314 151.435 34.7614 151.587 35.049C151.739 35.3314 151.815 35.6451 151.815 35.9902C151.815 36.0425 151.813 36.1 151.807 36.1627C151.807 36.2203 151.805 36.2856 151.8 36.3588H148.558V35.802H151.028C151.013 35.4725 150.903 35.2163 150.698 35.0333C150.493 34.8451 150.239 34.751 149.935 34.751C149.72 34.751 149.523 34.8007 149.345 34.9C149.166 34.9941 149.022 35.1353 148.912 35.3235C148.807 35.5065 148.755 35.7392 148.755 36.0216V36.2412C148.755 36.534 148.807 36.7824 148.912 36.9863C149.022 37.185 149.166 37.3366 149.345 37.4412C149.523 37.5405 149.717 37.5902 149.927 37.5902C150.179 37.5902 150.386 37.5353 150.549 37.4255C150.711 37.3157 150.832 37.1667 150.91 36.9784H151.697C151.629 37.219 151.514 37.4359 151.351 37.6294C151.188 37.8176 150.986 37.9667 150.745 38.0765C150.509 38.1863 150.236 38.2412 149.927 38.2412Z" fill="white"/>
<path d="M152.097 38.1471L153.466 36.1706L152.097 34.1941H152.946L153.985 35.7314L155.031 34.1941H155.873L154.504 36.1706L155.873 38.1471H155.031L153.985 36.602L152.946 38.1471H152.097Z" fill="white"/>
<path d="M156.562 39.8726V34.1941H157.27L157.349 34.8059C157.433 34.6856 157.538 34.5732 157.663 34.4686C157.789 34.3588 157.939 34.2699 158.112 34.202C158.29 34.134 158.497 34.1 158.734 34.1C159.111 34.1 159.442 34.1915 159.725 34.3745C160.013 34.5575 160.236 34.8059 160.394 35.1196C160.556 35.4281 160.638 35.781 160.638 36.1784C160.638 36.5758 160.556 36.9314 160.394 37.2451C160.231 37.5536 160.006 37.7967 159.717 37.9745C159.434 38.1523 159.103 38.2412 158.726 38.2412C158.416 38.2412 158.143 38.181 157.907 38.0608C157.671 37.9353 157.485 37.7627 157.349 37.5431V39.8726H156.562ZM158.6 37.5588C158.841 37.5588 159.054 37.5013 159.237 37.3863C159.426 37.2712 159.573 37.1091 159.678 36.9C159.788 36.6908 159.843 36.4477 159.843 36.1706C159.843 35.8935 159.788 35.6529 159.678 35.449C159.573 35.2399 159.426 35.0778 159.237 34.9627C159.054 34.8425 158.841 34.7824 158.6 34.7824C158.353 34.7824 158.136 34.8425 157.947 34.9627C157.763 35.0778 157.619 35.2399 157.514 35.449C157.409 35.6529 157.357 35.8935 157.357 36.1706C157.357 36.4477 157.409 36.6908 157.514 36.9C157.619 37.1091 157.763 37.2712 157.947 37.3863C158.136 37.5013 158.353 37.5588 158.6 37.5588Z" fill="white"/>
<path d="M163.35 38.2412C162.973 38.2412 162.637 38.1549 162.343 37.9824C162.049 37.8098 161.819 37.5693 161.651 37.2608C161.488 36.9523 161.407 36.5941 161.407 36.1863C161.407 35.768 161.488 35.4046 161.651 35.0961C161.819 34.7824 162.049 34.5392 162.343 34.3667C162.637 34.1889 162.978 34.1 163.366 34.1C163.754 34.1 164.087 34.1863 164.365 34.3588C164.643 34.5314 164.858 34.7614 165.01 35.049C165.163 35.3314 165.239 35.6451 165.239 35.9902C165.239 36.0425 165.236 36.1 165.231 36.1627C165.231 36.2203 165.228 36.2856 165.223 36.3588H161.981V35.802H164.452C164.436 35.4725 164.326 35.2163 164.121 35.0333C163.917 34.8451 163.662 34.751 163.358 34.751C163.143 34.751 162.946 34.8007 162.768 34.9C162.59 34.9941 162.445 35.1353 162.335 35.3235C162.23 35.5065 162.178 35.7392 162.178 36.0216V36.2412C162.178 36.534 162.23 36.7824 162.335 36.9863C162.445 37.185 162.59 37.3366 162.768 37.4412C162.946 37.5405 163.14 37.5902 163.35 37.5902C163.602 37.5902 163.809 37.5353 163.972 37.4255C164.134 37.3157 164.255 37.1667 164.334 36.9784H165.121C165.052 37.219 164.937 37.4359 164.774 37.6294C164.612 37.8176 164.41 37.9667 164.169 38.0765C163.932 38.1863 163.66 38.2412 163.35 38.2412Z" fill="white"/>
<path d="M166.113 38.1471V34.1941H166.821L166.892 34.9392C166.981 34.7614 167.096 34.6124 167.238 34.4922C167.379 34.3667 167.545 34.2699 167.734 34.202C167.928 34.134 168.148 34.1 168.394 34.1V34.9314H168.111C167.949 34.9314 167.794 34.9523 167.647 34.9941C167.5 35.0307 167.369 35.0961 167.254 35.1902C167.143 35.2843 167.057 35.4124 166.994 35.5745C166.931 35.7366 166.9 35.9379 166.9 36.1784V38.1471H166.113Z" fill="white"/>
<path d="M169.172 38.1471V34.1941H169.959V38.1471H169.172ZM169.573 33.449C169.421 33.449 169.295 33.402 169.196 33.3078C169.101 33.2137 169.054 33.0935 169.054 32.9471C169.054 32.8059 169.101 32.6908 169.196 32.602C169.295 32.5078 169.421 32.4608 169.573 32.4608C169.72 32.4608 169.844 32.5078 169.943 32.602C170.043 32.6908 170.093 32.8059 170.093 32.9471C170.093 33.0935 170.043 33.2137 169.943 33.3078C169.844 33.402 169.72 33.449 169.573 33.449Z" fill="white"/>
<path d="M172.878 38.2412C172.5 38.2412 172.165 38.1549 171.871 37.9824C171.577 37.8098 171.346 37.5693 171.178 37.2608C171.016 36.9523 170.935 36.5941 170.935 36.1863C170.935 35.768 171.016 35.4046 171.178 35.0961C171.346 34.7824 171.577 34.5392 171.871 34.3667C172.165 34.1889 172.506 34.1 172.894 34.1C173.282 34.1 173.615 34.1863 173.893 34.3588C174.171 34.5314 174.386 34.7614 174.538 35.049C174.69 35.3314 174.766 35.6451 174.766 35.9902C174.766 36.0425 174.764 36.1 174.758 36.1627C174.758 36.2203 174.756 36.2856 174.751 36.3588H171.509V35.802H173.979C173.964 35.4725 173.854 35.2163 173.649 35.0333C173.444 34.8451 173.19 34.751 172.886 34.751C172.671 34.751 172.474 34.8007 172.296 34.9C172.117 34.9941 171.973 35.1353 171.863 35.3235C171.758 35.5065 171.706 35.7392 171.706 36.0216V36.2412C171.706 36.534 171.758 36.7824 171.863 36.9863C171.973 37.185 172.117 37.3366 172.296 37.4412C172.474 37.5405 172.668 37.5902 172.878 37.5902C173.13 37.5902 173.337 37.5353 173.5 37.4255C173.662 37.3157 173.783 37.1667 173.861 36.9784H174.648C174.58 37.219 174.465 37.4359 174.302 37.6294C174.139 37.8176 173.938 37.9667 173.696 38.0765C173.46 38.1863 173.187 38.2412 172.878 38.2412Z" fill="white"/>
<path d="M175.64 38.1471V34.1941H176.349L176.396 34.8686C176.522 34.6333 176.7 34.4477 176.931 34.3118C177.162 34.1706 177.426 34.1 177.725 34.1C178.04 34.1 178.31 34.1627 178.536 34.2882C178.761 34.4137 178.937 34.6046 179.063 34.8608C179.189 35.1118 179.252 35.4281 179.252 35.8098V38.1471H178.465V35.8882C178.465 35.5222 178.384 35.2451 178.221 35.0569C178.059 34.8686 177.822 34.7745 177.513 34.7745C177.308 34.7745 177.125 34.8242 176.962 34.9235C176.8 35.0176 176.669 35.1588 176.569 35.3471C176.474 35.5353 176.427 35.7654 176.427 36.0373V38.1471H175.64Z" fill="white"/>
<path d="M182.092 38.2412C181.709 38.2412 181.368 38.1549 181.069 37.9824C180.77 37.8046 180.534 37.5614 180.361 37.2529C180.193 36.9444 180.109 36.5863 180.109 36.1784C180.109 35.7654 180.193 35.4046 180.361 35.0961C180.534 34.7824 180.77 34.5392 181.069 34.3667C181.368 34.1889 181.709 34.1 182.092 34.1C182.574 34.1 182.978 34.2255 183.303 34.4765C183.628 34.7275 183.836 35.0673 183.925 35.4961H183.107C183.054 35.266 182.933 35.0882 182.745 34.9627C182.561 34.8373 182.341 34.7745 182.084 34.7745C181.874 34.7745 181.68 34.8294 181.501 34.9392C181.323 35.0438 181.179 35.2007 181.069 35.4098C180.964 35.6137 180.911 35.8673 180.911 36.1706C180.911 36.3954 180.943 36.5967 181.006 36.7745C181.069 36.9471 181.153 37.0935 181.258 37.2137C181.368 37.334 181.494 37.4255 181.635 37.4882C181.777 37.5458 181.926 37.5745 182.084 37.5745C182.257 37.5745 182.412 37.5484 182.548 37.4961C182.69 37.4386 182.808 37.3549 182.902 37.2451C183.002 37.1353 183.07 37.0046 183.107 36.8529H183.925C183.836 37.2712 183.628 37.6085 183.303 37.8647C182.978 38.1157 182.574 38.2412 182.092 38.2412Z" fill="white"/>
<path d="M186.639 38.2412C186.262 38.2412 185.926 38.1549 185.632 37.9824C185.338 37.8098 185.108 37.5693 184.94 37.2608C184.777 36.9523 184.696 36.5941 184.696 36.1863C184.696 35.768 184.777 35.4046 184.94 35.0961C185.108 34.7824 185.338 34.5392 185.632 34.3667C185.926 34.1889 186.267 34.1 186.655 34.1C187.043 34.1 187.376 34.1863 187.654 34.3588C187.932 34.5314 188.147 34.7614 188.299 35.049C188.452 35.3314 188.528 35.6451 188.528 35.9902C188.528 36.0425 188.525 36.1 188.52 36.1627C188.52 36.2203 188.517 36.2856 188.512 36.3588H185.27V35.802H187.741C187.725 35.4725 187.615 35.2163 187.41 35.0333C187.206 34.8451 186.951 34.751 186.647 34.751C186.432 34.751 186.235 34.8007 186.057 34.9C185.879 34.9941 185.735 35.1353 185.624 35.3235C185.519 35.5065 185.467 35.7392 185.467 36.0216V36.2412C185.467 36.534 185.519 36.7824 185.624 36.9863C185.735 37.185 185.879 37.3366 186.057 37.4412C186.235 37.5405 186.43 37.5902 186.639 37.5902C186.891 37.5902 187.098 37.5353 187.261 37.4255C187.424 37.3157 187.544 37.1667 187.623 36.9784H188.41C188.341 37.219 188.226 37.4359 188.063 37.6294C187.901 37.8176 187.699 37.9667 187.458 38.0765C187.222 38.1863 186.949 38.2412 186.639 38.2412Z" fill="white"/>
</svg>
